# xmcd
#
# Track frame offsets:
#	150
#	14582
#	31957
#	45852
#	58197
#	72297
#	89397
#	104812
#	118130
#	133835
#	150605
#	168887
#	186755
#	202805
#	220585
#	236467
#	251662
#	264432
#
# Disc length: 3730 seconds
#
# Revision: 2
# Processed by: cddbd v1.5.2PL0 Copyright (c) Steve Scherf et al.
# Submitted via: audiograbber 1.81.02
#
DISCID=f90e9012
DTITLE=Various Artist - CDX Volume 141 - August 1996
DYEAR=1996
DGENRE=
TTITLE0=Mandy Barnett - A Simple I Love You
TTITLE1=Lyle Lovett - Don't Touch My Hat
TTITLE2=Trace Adkins - Every Light In The House Is On
TTITLE3=Eddy Raven and Jo-El Sonnier - Fais Do Do
TTITLE4=Deryl Dodd - Friends Don't Drive Friends
TTITLE5=Emilio - Have I Told You Lately
TTITLE6=Great Plains - Healin' Hands
TTITLE7=LeAnn Rimes - Hurt Me
TTITLE8=Don Williams - I Need You To Want Me
TTITLE9=Jamie Warren - One Step Back
TTITLE10=Ronna Reeves - Rodeo Man
TTITLE11=Sawyer Brown - She's Gettin' There
TTITLE12=K.T. Oslin - Silver Tongue And Gold Plated Lies
TTITLE13=Brent Lamb - Smoke And Mirrors
TTITLE14=Martina McBride - Swingin' Doors
TTITLE15=Marty Stuart - Thanks To You
TTITLE16=Mila Mason - That's Enough Of That
TTITLE17=Bill Ray Cyrus - Trail Of Tears
EXTD=
EXTT0=
EXTT1=
EXTT2=
EXTT3=
EXTT4=
EXTT5=
EXTT6=
EXTT7=
EXTT8=
EXTT9=
EXTT10=
EXTT11=
EXTT12=
EXTT13=
EXTT14=
EXTT15=
EXTT16=
EXTT17=
PLAYORDER=
